<mxfile host="app.diagrams.net" modified="2023-11-16T03:49:34.428Z" agent="Mozilla/5.0 (Windows NT 10.0; Win64; x64) AppleWebKit/537.36 (KHTML, like Gecko) Chrome/119.0.0.0 Safari/537.36" etag="BbStBJsDX1_Ik1zs5DB1" version="22.1.2" type="github">
  <diagram name="Page-1" id="efa7a0a1-bf9b-a30e-e6df-94a7791c09e9">
    <mxGraphModel dx="3159" dy="2356" grid="1" gridSize="10" guides="1" tooltips="1" connect="1" arrows="1" fold="1" page="1" pageScale="1" pageWidth="826" pageHeight="1169" background="none" math="0" shadow="0">
      <root>
        <mxCell id="0" />
        <mxCell id="1" parent="0" />
        <mxCell id="20" value="&lt;p style=&quot;margin: 0px; margin-top: 4px; text-align: center; text-decoration: underline;&quot;&gt;&lt;strong&gt;CFSMaster&lt;/strong&gt;&lt;/p&gt;&lt;hr&gt;&lt;p style=&quot;margin: 0px; margin-left: 8px;&quot;&gt;professionalMasterId&lt;/p&gt;&lt;p style=&quot;margin: 0px; margin-left: 8px;&quot;&gt;email&lt;/p&gt;&lt;p style=&quot;margin: 0px; margin-left: 8px;&quot;&gt;&lt;br&gt;&lt;/p&gt;" style="verticalAlign=top;align=left;overflow=fill;fontSize=12;fontFamily=Helvetica;html=1;strokeColor=#003366;shadow=1;fillColor=#D4E1F5;fontColor=#003366" parent="1" vertex="1">
          <mxGeometry x="420" y="316.25" width="160" height="107.5" as="geometry" />
        </mxCell>
        <mxCell id="qHXHoo9ju1U-q6KCEDC5-151" style="edgeStyle=orthogonalEdgeStyle;rounded=0;orthogonalLoop=1;jettySize=auto;html=1;entryX=1;entryY=0.5;entryDx=0;entryDy=0;" edge="1" parent="1" source="22" target="qHXHoo9ju1U-q6KCEDC5-114">
          <mxGeometry relative="1" as="geometry" />
        </mxCell>
        <mxCell id="22" value="&lt;p style=&quot;margin: 0px; margin-top: 4px; text-align: center; text-decoration: underline;&quot;&gt;&lt;strong&gt;Customer&lt;/strong&gt;&lt;/p&gt;&lt;hr&gt;&lt;p style=&quot;margin: 0px; margin-left: 8px;&quot;&gt;customeMasterId&lt;/p&gt;&lt;p style=&quot;margin: 0px; margin-left: 8px;&quot;&gt;SAPCode&lt;/p&gt;&lt;p style=&quot;margin: 0px; margin-left: 8px;&quot;&gt;&lt;br&gt;&lt;/p&gt;" style="verticalAlign=top;align=left;overflow=fill;fontSize=12;fontFamily=Helvetica;html=1;strokeColor=#003366;shadow=1;fillColor=#D4E1F5;fontColor=#003366" parent="1" vertex="1">
          <mxGeometry x="986" y="321.25" width="160" height="97.5" as="geometry" />
        </mxCell>
        <mxCell id="qHXHoo9ju1U-q6KCEDC5-150" style="edgeStyle=orthogonalEdgeStyle;rounded=0;orthogonalLoop=1;jettySize=auto;html=1;entryX=1;entryY=0.5;entryDx=0;entryDy=0;" edge="1" parent="1" source="qHXHoo9ju1U-q6KCEDC5-114" target="20">
          <mxGeometry relative="1" as="geometry" />
        </mxCell>
        <mxCell id="qHXHoo9ju1U-q6KCEDC5-156" style="edgeStyle=orthogonalEdgeStyle;rounded=0;orthogonalLoop=1;jettySize=auto;html=1;entryX=1;entryY=0.5;entryDx=0;entryDy=0;" edge="1" parent="1" source="qHXHoo9ju1U-q6KCEDC5-114" target="qHXHoo9ju1U-q6KCEDC5-154">
          <mxGeometry relative="1" as="geometry" />
        </mxCell>
        <mxCell id="qHXHoo9ju1U-q6KCEDC5-114" value="&lt;p style=&quot;margin: 0px; margin-top: 4px; text-align: center; text-decoration: underline;&quot;&gt;&lt;strong&gt;ProfessionalAffiliate&lt;/strong&gt;&lt;/p&gt;&lt;hr&gt;&lt;p style=&quot;margin: 0px; margin-left: 8px;&quot;&gt;professionalMasterId&lt;/p&gt;&lt;p style=&quot;margin: 0px; margin-left: 8px;&quot;&gt;&lt;span style=&quot;background-color: initial;&quot;&gt;professionalAffiliateId&lt;/span&gt;&lt;br&gt;&lt;/p&gt;&lt;p style=&quot;margin: 0px; margin-left: 8px;&quot;&gt;&lt;span style=&quot;background-color: initial;&quot;&gt;customerMasterId&lt;/span&gt;&lt;/p&gt;&lt;p style=&quot;margin: 0px; margin-left: 8px;&quot;&gt;&lt;span style=&quot;background-color: initial;&quot;&gt;SAPCode&lt;/span&gt;&lt;/p&gt;&lt;p style=&quot;margin: 0px; margin-left: 8px;&quot;&gt;&lt;span style=&quot;background-color: initial;&quot;&gt;sourceName&lt;/span&gt;&lt;/p&gt;&lt;p style=&quot;margin: 0px; margin-left: 8px;&quot;&gt;&lt;span style=&quot;background-color: initial;&quot;&gt;sourceUserUniqueId&lt;/span&gt;&lt;/p&gt;" style="verticalAlign=top;align=left;overflow=fill;fontSize=12;fontFamily=Helvetica;html=1;strokeColor=#003366;shadow=1;fillColor=#D4E1F5;fontColor=#003366" vertex="1" parent="1">
          <mxGeometry x="720" y="310" width="160" height="120" as="geometry" />
        </mxCell>
        <mxCell id="qHXHoo9ju1U-q6KCEDC5-126" value="&lt;p style=&quot;margin: 0px; margin-top: 4px; text-align: center; text-decoration: underline;&quot;&gt;&lt;strong&gt;SalesInfoCustomer&lt;/strong&gt;&lt;/p&gt;&lt;hr&gt;&lt;p style=&quot;margin: 0px; margin-left: 8px;&quot;&gt;customeMasterId&lt;/p&gt;&lt;p style=&quot;margin: 0px; margin-left: 8px;&quot;&gt;SAPCode&lt;/p&gt;&lt;p style=&quot;margin: 0px; margin-left: 8px;&quot;&gt;salesOrganisationCode&lt;/p&gt;&lt;p style=&quot;margin: 0px; margin-left: 8px;&quot;&gt;divisionCode&lt;/p&gt;&lt;p style=&quot;margin: 0px; margin-left: 8px;&quot;&gt;distributionChannelCode&lt;/p&gt;&lt;p style=&quot;margin: 0px; margin-left: 8px;&quot;&gt;&lt;br&gt;&lt;/p&gt;" style="verticalAlign=top;align=left;overflow=fill;fontSize=12;fontFamily=Helvetica;html=1;strokeColor=#003366;shadow=1;fillColor=#D4E1F5;fontColor=#003366" vertex="1" parent="1">
          <mxGeometry x="980" y="477.5" width="160" height="117.5" as="geometry" />
        </mxCell>
        <mxCell id="qHXHoo9ju1U-q6KCEDC5-153" style="edgeStyle=orthogonalEdgeStyle;rounded=0;orthogonalLoop=1;jettySize=auto;html=1;entryX=1;entryY=0.75;entryDx=0;entryDy=0;" edge="1" parent="1" source="qHXHoo9ju1U-q6KCEDC5-128" target="20">
          <mxGeometry relative="1" as="geometry" />
        </mxCell>
        <mxCell id="qHXHoo9ju1U-q6KCEDC5-128" value="&lt;p style=&quot;margin: 0px; margin-top: 4px; text-align: center; text-decoration: underline;&quot;&gt;&lt;b&gt;Consents&lt;/b&gt;&lt;/p&gt;&lt;hr&gt;&lt;p style=&quot;margin: 0px; margin-left: 8px;&quot;&gt;professionalMasterId&lt;/p&gt;&lt;p style=&quot;margin: 0px; margin-left: 8px;&quot;&gt;emailOptin&lt;/p&gt;&lt;p style=&quot;margin: 0px; margin-left: 8px;&quot;&gt;phoneOptin&lt;/p&gt;&lt;p style=&quot;margin: 0px; margin-left: 8px;&quot;&gt;smsOptin&lt;/p&gt;&lt;p style=&quot;margin: 0px; margin-left: 8px;&quot;&gt;&lt;br&gt;&lt;/p&gt;&lt;p style=&quot;margin: 0px; margin-left: 8px;&quot;&gt;&lt;br&gt;&lt;/p&gt;" style="verticalAlign=top;align=left;overflow=fill;fontSize=12;fontFamily=Helvetica;html=1;strokeColor=#003366;shadow=1;fillColor=#D4E1F5;fontColor=#003366" vertex="1" parent="1">
          <mxGeometry x="580" y="472.5" width="160" height="107.5" as="geometry" />
        </mxCell>
        <mxCell id="qHXHoo9ju1U-q6KCEDC5-152" style="edgeStyle=orthogonalEdgeStyle;rounded=0;orthogonalLoop=1;jettySize=auto;html=1;entryX=0;entryY=0.5;entryDx=0;entryDy=0;" edge="1" parent="1" source="qHXHoo9ju1U-q6KCEDC5-129" target="20">
          <mxGeometry relative="1" as="geometry" />
        </mxCell>
        <mxCell id="qHXHoo9ju1U-q6KCEDC5-129" value="&lt;p style=&quot;margin: 0px; margin-top: 4px; text-align: center; text-decoration: underline;&quot;&gt;&lt;b&gt;AccountApplicant&lt;/b&gt;&lt;/p&gt;&lt;hr&gt;&lt;p style=&quot;margin: 0px; margin-left: 8px;&quot;&gt;acAppKey&lt;/p&gt;&lt;p style=&quot;margin: 0px; margin-left: 8px;&quot;&gt;professionalMasterId&lt;/p&gt;&lt;p style=&quot;margin: 0px; margin-left: 8px;&quot;&gt;&lt;br&gt;&lt;/p&gt;&lt;p style=&quot;margin: 0px; margin-left: 8px;&quot;&gt;&lt;br&gt;&lt;/p&gt;&lt;p style=&quot;margin: 0px; margin-left: 8px;&quot;&gt;&lt;br&gt;&lt;/p&gt;" style="verticalAlign=top;align=left;overflow=fill;fontSize=12;fontFamily=Helvetica;html=1;strokeColor=#003366;shadow=1;fillColor=#D4E1F5;fontColor=#003366" vertex="1" parent="1">
          <mxGeometry x="320" y="477.5" width="160" height="107.5" as="geometry" />
        </mxCell>
        <mxCell id="qHXHoo9ju1U-q6KCEDC5-163" style="edgeStyle=orthogonalEdgeStyle;rounded=0;orthogonalLoop=1;jettySize=auto;html=1;entryX=0;entryY=0.5;entryDx=0;entryDy=0;" edge="1" parent="1" source="qHXHoo9ju1U-q6KCEDC5-130" target="qHXHoo9ju1U-q6KCEDC5-132">
          <mxGeometry relative="1" as="geometry" />
        </mxCell>
        <mxCell id="qHXHoo9ju1U-q6KCEDC5-130" value="&lt;p style=&quot;margin: 0px; margin-top: 4px; text-align: center; text-decoration: underline;&quot;&gt;&lt;strong&gt;Product&lt;/strong&gt;&lt;/p&gt;&lt;hr&gt;&lt;p style=&quot;margin: 0px; margin-left: 8px;&quot;&gt;productKey&lt;/p&gt;&lt;p style=&quot;margin: 0px; margin-left: 8px;&quot;&gt;sourceProductId&lt;/p&gt;&lt;p style=&quot;margin: 0px; margin-left: 8px;&quot;&gt;brand&lt;/p&gt;&lt;p style=&quot;margin: 0px; margin-left: 8px;&quot;&gt;&lt;br&gt;&lt;/p&gt;&lt;p style=&quot;margin: 0px; margin-left: 8px;&quot;&gt;&lt;br&gt;&lt;/p&gt;" style="verticalAlign=top;align=left;overflow=fill;fontSize=12;fontFamily=Helvetica;html=1;strokeColor=#003366;shadow=1;fillColor=#D4E1F5;fontColor=#003366" vertex="1" parent="1">
          <mxGeometry x="-470" y="290" width="160" height="107.5" as="geometry" />
        </mxCell>
        <mxCell id="qHXHoo9ju1U-q6KCEDC5-157" style="edgeStyle=orthogonalEdgeStyle;rounded=0;orthogonalLoop=1;jettySize=auto;html=1;entryX=0;entryY=0.25;entryDx=0;entryDy=0;" edge="1" parent="1" source="qHXHoo9ju1U-q6KCEDC5-131" target="20">
          <mxGeometry relative="1" as="geometry" />
        </mxCell>
        <mxCell id="qHXHoo9ju1U-q6KCEDC5-131" value="&lt;p style=&quot;margin: 0px; margin-top: 4px; text-align: center; text-decoration: underline;&quot;&gt;&lt;strong&gt;OrderHeader&lt;/strong&gt;&lt;/p&gt;&lt;hr&gt;&lt;p style=&quot;margin: 0px; margin-left: 8px;&quot;&gt;orderKey&lt;/p&gt;&lt;p style=&quot;margin: 0px; margin-left: 8px;&quot;&gt;sourceOrderId&lt;/p&gt;&lt;p style=&quot;margin: 0px; margin-left: 8px;&quot;&gt;sourceInvoiceId&lt;/p&gt;&lt;p style=&quot;margin: 0px; margin-left: 8px;&quot;&gt;professionalMasterId&lt;/p&gt;&lt;p style=&quot;margin: 0px; margin-left: 8px;&quot;&gt;&lt;br&gt;&lt;/p&gt;" style="verticalAlign=top;align=left;overflow=fill;fontSize=12;fontFamily=Helvetica;html=1;strokeColor=#003366;shadow=1;fillColor=#D4E1F5;fontColor=#003366" vertex="1" parent="1">
          <mxGeometry y="290" width="160" height="107.5" as="geometry" />
        </mxCell>
        <mxCell id="qHXHoo9ju1U-q6KCEDC5-158" style="edgeStyle=orthogonalEdgeStyle;rounded=0;orthogonalLoop=1;jettySize=auto;html=1;entryX=0;entryY=0.5;entryDx=0;entryDy=0;" edge="1" parent="1" source="qHXHoo9ju1U-q6KCEDC5-132" target="qHXHoo9ju1U-q6KCEDC5-131">
          <mxGeometry relative="1" as="geometry" />
        </mxCell>
        <mxCell id="qHXHoo9ju1U-q6KCEDC5-132" value="&lt;p style=&quot;margin: 0px; margin-top: 4px; text-align: center; text-decoration: underline;&quot;&gt;&lt;strong&gt;Orderlines&lt;/strong&gt;&lt;/p&gt;&lt;hr&gt;&lt;p style=&quot;margin: 0px; margin-left: 8px;&quot;&gt;orderKey&lt;/p&gt;&lt;p style=&quot;margin: 0px; margin-left: 8px;&quot;&gt;sourceProductId&lt;/p&gt;&lt;p style=&quot;margin: 0px; margin-left: 8px;&quot;&gt;brand&lt;/p&gt;&lt;p style=&quot;margin: 0px; margin-left: 8px;&quot;&gt;&lt;br&gt;&lt;/p&gt;&lt;p style=&quot;margin: 0px; margin-left: 8px;&quot;&gt;&lt;br&gt;&lt;/p&gt;" style="verticalAlign=top;align=left;overflow=fill;fontSize=12;fontFamily=Helvetica;html=1;strokeColor=#003366;shadow=1;fillColor=#D4E1F5;fontColor=#003366" vertex="1" parent="1">
          <mxGeometry x="-230" y="290" width="160" height="107.5" as="geometry" />
        </mxCell>
        <mxCell id="qHXHoo9ju1U-q6KCEDC5-159" style="edgeStyle=orthogonalEdgeStyle;rounded=0;orthogonalLoop=1;jettySize=auto;html=1;entryX=0.5;entryY=0;entryDx=0;entryDy=0;" edge="1" parent="1" source="qHXHoo9ju1U-q6KCEDC5-133" target="qHXHoo9ju1U-q6KCEDC5-131">
          <mxGeometry relative="1" as="geometry" />
        </mxCell>
        <mxCell id="qHXHoo9ju1U-q6KCEDC5-133" value="&lt;p style=&quot;margin: 0px; margin-top: 4px; text-align: center; text-decoration: underline;&quot;&gt;&lt;b&gt;Invoice&lt;/b&gt;&lt;/p&gt;&lt;hr&gt;&lt;p style=&quot;margin: 0px; margin-left: 8px;&quot;&gt;&lt;span style=&quot;background-color: initial;&quot;&gt;invoiceKey&lt;/span&gt;&lt;br&gt;&lt;/p&gt;&lt;p style=&quot;margin: 0px; margin-left: 8px;&quot;&gt;sourceInvoiceId&lt;span style=&quot;background-color: initial;&quot;&gt;&lt;br&gt;&lt;/span&gt;&lt;/p&gt;&lt;p style=&quot;margin: 0px; margin-left: 8px;&quot;&gt;&lt;br&gt;&lt;/p&gt;&lt;p style=&quot;margin: 0px; margin-left: 8px;&quot;&gt;&lt;br&gt;&lt;/p&gt;&lt;p style=&quot;margin: 0px; margin-left: 8px;&quot;&gt;&lt;br&gt;&lt;/p&gt;" style="verticalAlign=top;align=left;overflow=fill;fontSize=12;fontFamily=Helvetica;html=1;strokeColor=#003366;shadow=1;fillColor=#D4E1F5;fontColor=#003366" vertex="1" parent="1">
          <mxGeometry y="97.5" width="160" height="107.5" as="geometry" />
        </mxCell>
        <mxCell id="qHXHoo9ju1U-q6KCEDC5-160" style="edgeStyle=orthogonalEdgeStyle;rounded=0;orthogonalLoop=1;jettySize=auto;html=1;entryX=0;entryY=0.5;entryDx=0;entryDy=0;" edge="1" parent="1" source="qHXHoo9ju1U-q6KCEDC5-134" target="qHXHoo9ju1U-q6KCEDC5-133">
          <mxGeometry relative="1" as="geometry" />
        </mxCell>
        <mxCell id="qHXHoo9ju1U-q6KCEDC5-166" style="edgeStyle=orthogonalEdgeStyle;rounded=0;orthogonalLoop=1;jettySize=auto;html=1;entryX=0.5;entryY=0;entryDx=0;entryDy=0;" edge="1" parent="1" source="qHXHoo9ju1U-q6KCEDC5-134" target="qHXHoo9ju1U-q6KCEDC5-130">
          <mxGeometry relative="1" as="geometry" />
        </mxCell>
        <mxCell id="qHXHoo9ju1U-q6KCEDC5-134" value="&lt;p style=&quot;margin: 0px; margin-top: 4px; text-align: center; text-decoration: underline;&quot;&gt;&lt;strong&gt;Invoicelines&lt;/strong&gt;&lt;/p&gt;&lt;hr&gt;&lt;p style=&quot;border-color: var(--border-color); margin: 0px 0px 0px 8px;&quot;&gt;invoiceKey&lt;br style=&quot;border-color: var(--border-color);&quot;&gt;&lt;/p&gt;&lt;p style=&quot;border-color: var(--border-color); margin: 0px 0px 0px 8px;&quot;&gt;sourceInvoiceId&lt;span style=&quot;border-color: var(--border-color); background-color: initial;&quot;&gt;&lt;br style=&quot;border-color: var(--border-color);&quot;&gt;&lt;/span&gt;&lt;/p&gt;&lt;p style=&quot;border-color: var(--border-color); margin: 0px 0px 0px 8px;&quot;&gt;orderKey&lt;/p&gt;&lt;p style=&quot;border-color: var(--border-color); margin: 0px 0px 0px 8px;&quot;&gt;linenumber&lt;/p&gt;&lt;p style=&quot;border-color: var(--border-color); margin: 0px 0px 0px 8px;&quot;&gt;productKey&lt;/p&gt;&lt;p style=&quot;margin: 0px; margin-left: 8px;&quot;&gt;&lt;br&gt;&lt;/p&gt;" style="verticalAlign=top;align=left;overflow=fill;fontSize=12;fontFamily=Helvetica;html=1;strokeColor=#003366;shadow=1;fillColor=#D4E1F5;fontColor=#003366" vertex="1" parent="1">
          <mxGeometry x="-240" y="97.5" width="160" height="107.5" as="geometry" />
        </mxCell>
        <mxCell id="qHXHoo9ju1U-q6KCEDC5-161" style="edgeStyle=orthogonalEdgeStyle;rounded=0;orthogonalLoop=1;jettySize=auto;html=1;entryX=0.5;entryY=1;entryDx=0;entryDy=0;" edge="1" parent="1" source="qHXHoo9ju1U-q6KCEDC5-135" target="qHXHoo9ju1U-q6KCEDC5-131">
          <mxGeometry relative="1" as="geometry" />
        </mxCell>
        <mxCell id="qHXHoo9ju1U-q6KCEDC5-135" value="&lt;p style=&quot;margin: 0px; margin-top: 4px; text-align: center; text-decoration: underline;&quot;&gt;&lt;strong&gt;Delivery&lt;/strong&gt;&lt;/p&gt;&lt;hr&gt;&lt;p style=&quot;margin: 0px; margin-left: 8px;&quot;&gt;deliveryId&lt;/p&gt;&lt;p style=&quot;margin: 0px; margin-left: 8px;&quot;&gt;orderKey&lt;/p&gt;&lt;p style=&quot;margin: 0px; margin-left: 8px;&quot;&gt;&lt;br&gt;&lt;/p&gt;&lt;p style=&quot;margin: 0px; margin-left: 8px;&quot;&gt;&lt;br&gt;&lt;/p&gt;&lt;p style=&quot;margin: 0px; margin-left: 8px;&quot;&gt;&lt;br&gt;&lt;/p&gt;" style="verticalAlign=top;align=left;overflow=fill;fontSize=12;fontFamily=Helvetica;html=1;strokeColor=#003366;shadow=1;fillColor=#D4E1F5;fontColor=#003366" vertex="1" parent="1">
          <mxGeometry y="497.5" width="160" height="107.5" as="geometry" />
        </mxCell>
        <mxCell id="qHXHoo9ju1U-q6KCEDC5-162" style="edgeStyle=orthogonalEdgeStyle;rounded=0;orthogonalLoop=1;jettySize=auto;html=1;entryX=0;entryY=0.5;entryDx=0;entryDy=0;" edge="1" parent="1" source="qHXHoo9ju1U-q6KCEDC5-136" target="qHXHoo9ju1U-q6KCEDC5-135">
          <mxGeometry relative="1" as="geometry" />
        </mxCell>
        <mxCell id="qHXHoo9ju1U-q6KCEDC5-165" style="edgeStyle=orthogonalEdgeStyle;rounded=0;orthogonalLoop=1;jettySize=auto;html=1;entryX=0.5;entryY=1;entryDx=0;entryDy=0;" edge="1" parent="1" source="qHXHoo9ju1U-q6KCEDC5-136" target="qHXHoo9ju1U-q6KCEDC5-132">
          <mxGeometry relative="1" as="geometry" />
        </mxCell>
        <mxCell id="qHXHoo9ju1U-q6KCEDC5-136" value="&lt;p style=&quot;margin: 0px; margin-top: 4px; text-align: center; text-decoration: underline;&quot;&gt;&lt;strong&gt;Deliverylines&lt;/strong&gt;&lt;/p&gt;&lt;hr&gt;&lt;p style=&quot;margin: 0px; margin-left: 8px;&quot;&gt;deliveryId&lt;/p&gt;&lt;p style=&quot;margin: 0px; margin-left: 8px;&quot;&gt;orderKey&lt;/p&gt;&lt;p style=&quot;margin: 0px; margin-left: 8px;&quot;&gt;linenumber&lt;/p&gt;&lt;p style=&quot;margin: 0px; margin-left: 8px;&quot;&gt;&lt;br&gt;&lt;/p&gt;&lt;p style=&quot;margin: 0px; margin-left: 8px;&quot;&gt;&lt;br&gt;&lt;/p&gt;" style="verticalAlign=top;align=left;overflow=fill;fontSize=12;fontFamily=Helvetica;html=1;strokeColor=#003366;shadow=1;fillColor=#D4E1F5;fontColor=#003366" vertex="1" parent="1">
          <mxGeometry x="-230" y="497.5" width="160" height="107.5" as="geometry" />
        </mxCell>
        <mxCell id="qHXHoo9ju1U-q6KCEDC5-149" style="edgeStyle=orthogonalEdgeStyle;rounded=0;orthogonalLoop=1;jettySize=auto;html=1;" edge="1" parent="1" source="qHXHoo9ju1U-q6KCEDC5-137" target="20">
          <mxGeometry relative="1" as="geometry" />
        </mxCell>
        <mxCell id="qHXHoo9ju1U-q6KCEDC5-137" value="&lt;p style=&quot;margin: 0px; margin-top: 4px; text-align: center; text-decoration: underline;&quot;&gt;&lt;strong&gt;EducationActivities&lt;/strong&gt;&lt;/p&gt;&lt;hr&gt;&lt;p style=&quot;margin: 0px; margin-left: 8px;&quot;&gt;interactionId&lt;/p&gt;&lt;p style=&quot;margin: 0px; margin-left: 8px;&quot;&gt;interactionType&lt;/p&gt;&lt;p style=&quot;margin: 0px; margin-left: 8px;&quot;&gt;sessionId&lt;/p&gt;&lt;p style=&quot;margin: 0px; margin-left: 8px;&quot;&gt;courseId&lt;/p&gt;&lt;p style=&quot;margin: 0px; margin-left: 8px;&quot;&gt;eventId&lt;/p&gt;&lt;p style=&quot;margin: 0px; margin-left: 8px;&quot;&gt;professionalMasterId&lt;/p&gt;&lt;p style=&quot;margin: 0px; margin-left: 8px;&quot;&gt;customerMasterId&lt;/p&gt;&lt;p style=&quot;margin: 0px; margin-left: 8px;&quot;&gt;&lt;br&gt;&lt;/p&gt;&lt;p style=&quot;margin: 0px; margin-left: 8px;&quot;&gt;&lt;br&gt;&lt;/p&gt;" style="verticalAlign=top;align=left;overflow=fill;fontSize=12;fontFamily=Helvetica;html=1;strokeColor=#003366;shadow=1;fillColor=#D4E1F5;fontColor=#003366" vertex="1" parent="1">
          <mxGeometry x="420" y="-200" width="160" height="150" as="geometry" />
        </mxCell>
        <mxCell id="qHXHoo9ju1U-q6KCEDC5-144" style="edgeStyle=orthogonalEdgeStyle;rounded=0;orthogonalLoop=1;jettySize=auto;html=1;entryX=1;entryY=0.25;entryDx=0;entryDy=0;exitX=0.015;exitY=0.687;exitDx=0;exitDy=0;exitPerimeter=0;" edge="1" parent="1" source="qHXHoo9ju1U-q6KCEDC5-138" target="qHXHoo9ju1U-q6KCEDC5-137">
          <mxGeometry relative="1" as="geometry" />
        </mxCell>
        <mxCell id="qHXHoo9ju1U-q6KCEDC5-148" style="edgeStyle=orthogonalEdgeStyle;rounded=0;orthogonalLoop=1;jettySize=auto;html=1;entryX=1;entryY=0.5;entryDx=0;entryDy=0;" edge="1" parent="1" source="qHXHoo9ju1U-q6KCEDC5-138" target="qHXHoo9ju1U-q6KCEDC5-141">
          <mxGeometry relative="1" as="geometry" />
        </mxCell>
        <mxCell id="qHXHoo9ju1U-q6KCEDC5-138" value="&lt;p style=&quot;margin: 0px; margin-top: 4px; text-align: center; text-decoration: underline;&quot;&gt;&lt;strong&gt;Course&lt;/strong&gt;&lt;/p&gt;&lt;hr&gt;&lt;p style=&quot;margin: 0px; margin-left: 8px;&quot;&gt;courseId&lt;/p&gt;&lt;p style=&quot;margin: 0px; margin-left: 8px;&quot;&gt;courseUniqueId&lt;/p&gt;&lt;p style=&quot;margin: 0px; margin-left: 8px;&quot;&gt;catalogId&lt;/p&gt;&lt;p style=&quot;margin: 0px; margin-left: 8px;&quot;&gt;&lt;br&gt;&lt;/p&gt;" style="verticalAlign=top;align=left;overflow=fill;fontSize=12;fontFamily=Helvetica;html=1;strokeColor=#003366;shadow=1;fillColor=#D4E1F5;fontColor=#003366" vertex="1" parent="1">
          <mxGeometry x="720" y="-360" width="160" height="107.5" as="geometry" />
        </mxCell>
        <mxCell id="qHXHoo9ju1U-q6KCEDC5-146" style="edgeStyle=orthogonalEdgeStyle;rounded=0;orthogonalLoop=1;jettySize=auto;html=1;entryX=1;entryY=0.75;entryDx=0;entryDy=0;" edge="1" parent="1" source="qHXHoo9ju1U-q6KCEDC5-139" target="qHXHoo9ju1U-q6KCEDC5-137">
          <mxGeometry relative="1" as="geometry" />
        </mxCell>
        <mxCell id="qHXHoo9ju1U-q6KCEDC5-139" value="&lt;p style=&quot;margin: 0px; margin-top: 4px; text-align: center; text-decoration: underline;&quot;&gt;&lt;strong&gt;Session&lt;/strong&gt;&lt;/p&gt;&lt;hr&gt;&lt;p style=&quot;margin: 0px; margin-left: 8px;&quot;&gt;sessionId&lt;/p&gt;&lt;p style=&quot;margin: 0px; margin-left: 8px;&quot;&gt;&lt;br&gt;&lt;/p&gt;&lt;p style=&quot;margin: 0px; margin-left: 8px;&quot;&gt;&lt;br&gt;&lt;/p&gt;" style="verticalAlign=top;align=left;overflow=fill;fontSize=12;fontFamily=Helvetica;html=1;strokeColor=#003366;shadow=1;fillColor=#D4E1F5;fontColor=#003366" vertex="1" parent="1">
          <mxGeometry x="720" y="-10" width="160" height="107.5" as="geometry" />
        </mxCell>
        <mxCell id="qHXHoo9ju1U-q6KCEDC5-145" style="edgeStyle=orthogonalEdgeStyle;rounded=0;orthogonalLoop=1;jettySize=auto;html=1;entryX=1;entryY=0.5;entryDx=0;entryDy=0;" edge="1" parent="1" source="qHXHoo9ju1U-q6KCEDC5-140" target="qHXHoo9ju1U-q6KCEDC5-137">
          <mxGeometry relative="1" as="geometry" />
        </mxCell>
        <mxCell id="qHXHoo9ju1U-q6KCEDC5-147" style="edgeStyle=orthogonalEdgeStyle;rounded=0;orthogonalLoop=1;jettySize=auto;html=1;entryX=0.5;entryY=0;entryDx=0;entryDy=0;" edge="1" parent="1" source="qHXHoo9ju1U-q6KCEDC5-140" target="qHXHoo9ju1U-q6KCEDC5-139">
          <mxGeometry relative="1" as="geometry" />
        </mxCell>
        <mxCell id="qHXHoo9ju1U-q6KCEDC5-140" value="&lt;p style=&quot;margin: 0px; margin-top: 4px; text-align: center; text-decoration: underline;&quot;&gt;&lt;strong&gt;Events&lt;/strong&gt;&lt;/p&gt;&lt;hr&gt;&lt;p style=&quot;margin: 0px; margin-left: 8px;&quot;&gt;eventKey&lt;/p&gt;&lt;p style=&quot;margin: 0px; margin-left: 8px;&quot;&gt;sessionId&lt;/p&gt;&lt;p style=&quot;margin: 0px; margin-left: 8px;&quot;&gt;courseId&lt;/p&gt;&lt;p style=&quot;margin: 0px; margin-left: 8px;&quot;&gt;&lt;br&gt;&lt;/p&gt;" style="verticalAlign=top;align=left;overflow=fill;fontSize=12;fontFamily=Helvetica;html=1;strokeColor=#003366;shadow=1;fillColor=#D4E1F5;fontColor=#003366" vertex="1" parent="1">
          <mxGeometry x="720" y="-178.75" width="160" height="107.5" as="geometry" />
        </mxCell>
        <mxCell id="qHXHoo9ju1U-q6KCEDC5-143" style="edgeStyle=orthogonalEdgeStyle;rounded=0;orthogonalLoop=1;jettySize=auto;html=1;" edge="1" parent="1" source="qHXHoo9ju1U-q6KCEDC5-141" target="qHXHoo9ju1U-q6KCEDC5-137">
          <mxGeometry relative="1" as="geometry" />
        </mxCell>
        <mxCell id="qHXHoo9ju1U-q6KCEDC5-141" value="&lt;p style=&quot;margin: 0px; margin-top: 4px; text-align: center; text-decoration: underline;&quot;&gt;&lt;b&gt;LearningPlan&lt;/b&gt;&lt;/p&gt;&lt;hr&gt;&lt;p style=&quot;margin: 0px; margin-left: 8px;&quot;&gt;learningPlanKey&lt;/p&gt;&lt;p style=&quot;margin: 0px; margin-left: 8px;&quot;&gt;cataglogId&lt;/p&gt;&lt;p style=&quot;margin: 0px; margin-left: 8px;&quot;&gt;&lt;br&gt;&lt;/p&gt;" style="verticalAlign=top;align=left;overflow=fill;fontSize=12;fontFamily=Helvetica;html=1;strokeColor=#003366;shadow=1;fillColor=#D4E1F5;fontColor=#003366" vertex="1" parent="1">
          <mxGeometry x="420" y="-360" width="160" height="107.5" as="geometry" />
        </mxCell>
        <mxCell id="qHXHoo9ju1U-q6KCEDC5-155" style="edgeStyle=orthogonalEdgeStyle;rounded=0;orthogonalLoop=1;jettySize=auto;html=1;" edge="1" parent="1" source="qHXHoo9ju1U-q6KCEDC5-154">
          <mxGeometry relative="1" as="geometry">
            <mxPoint x="540" y="310" as="targetPoint" />
          </mxGeometry>
        </mxCell>
        <mxCell id="qHXHoo9ju1U-q6KCEDC5-154" value="&lt;p style=&quot;margin: 0px; margin-top: 4px; text-align: center; text-decoration: underline;&quot;&gt;&lt;strong&gt;CFSVersion&lt;/strong&gt;&lt;/p&gt;&lt;hr&gt;&lt;p style=&quot;margin: 0px; margin-left: 8px;&quot;&gt;CFSVersionKey&lt;/p&gt;&lt;p style=&quot;margin: 0px; margin-left: 8px;&quot;&gt;sourceName&lt;/p&gt;&lt;p style=&quot;margin: 0px; margin-left: 8px;&quot;&gt;sourceUserUniqueId&lt;/p&gt;&lt;p style=&quot;margin: 0px; margin-left: 8px;&quot;&gt;email&lt;/p&gt;&lt;p style=&quot;margin: 0px; margin-left: 8px;&quot;&gt;&lt;br&gt;&lt;/p&gt;" style="verticalAlign=top;align=left;overflow=fill;fontSize=12;fontFamily=Helvetica;html=1;strokeColor=#003366;shadow=1;fillColor=#D4E1F5;fontColor=#003366" vertex="1" parent="1">
          <mxGeometry x="570" y="140" width="160" height="107.5" as="geometry" />
        </mxCell>
        <mxCell id="qHXHoo9ju1U-q6KCEDC5-164" style="edgeStyle=orthogonalEdgeStyle;rounded=0;orthogonalLoop=1;jettySize=auto;html=1;entryX=0.438;entryY=0.006;entryDx=0;entryDy=0;entryPerimeter=0;" edge="1" parent="1" source="qHXHoo9ju1U-q6KCEDC5-134" target="qHXHoo9ju1U-q6KCEDC5-132">
          <mxGeometry relative="1" as="geometry" />
        </mxCell>
        <mxCell id="qHXHoo9ju1U-q6KCEDC5-167" value="N : 1" style="text;html=1;strokeColor=none;fillColor=none;align=center;verticalAlign=middle;whiteSpace=wrap;rounded=0;" vertex="1" parent="1">
          <mxGeometry x="180" y="310" width="60" height="30" as="geometry" />
        </mxCell>
        <mxCell id="qHXHoo9ju1U-q6KCEDC5-169" value="N : 1" style="text;html=1;strokeColor=none;fillColor=none;align=center;verticalAlign=middle;whiteSpace=wrap;rounded=0;" vertex="1" parent="1">
          <mxGeometry x="330" y="442.5" width="60" height="30" as="geometry" />
        </mxCell>
        <mxCell id="qHXHoo9ju1U-q6KCEDC5-170" value="1 : 1" style="text;html=1;strokeColor=none;fillColor=none;align=center;verticalAlign=middle;whiteSpace=wrap;rounded=0;" vertex="1" parent="1">
          <mxGeometry x="590" y="430" width="60" height="30" as="geometry" />
        </mxCell>
        <mxCell id="qHXHoo9ju1U-q6KCEDC5-171" value="1 : N" style="text;html=1;strokeColor=none;fillColor=none;align=center;verticalAlign=middle;whiteSpace=wrap;rounded=0;" vertex="1" parent="1">
          <mxGeometry x="650" y="328.75" width="60" height="30" as="geometry" />
        </mxCell>
        <mxCell id="qHXHoo9ju1U-q6KCEDC5-172" value="1 : 1" style="text;html=1;strokeColor=none;fillColor=none;align=center;verticalAlign=middle;whiteSpace=wrap;rounded=0;" vertex="1" parent="1">
          <mxGeometry x="900" y="340" width="60" height="30" as="geometry" />
        </mxCell>
        <mxCell id="qHXHoo9ju1U-q6KCEDC5-173" style="edgeStyle=orthogonalEdgeStyle;rounded=0;orthogonalLoop=1;jettySize=auto;html=1;entryX=0.463;entryY=1.013;entryDx=0;entryDy=0;entryPerimeter=0;" edge="1" parent="1" source="qHXHoo9ju1U-q6KCEDC5-126" target="22">
          <mxGeometry relative="1" as="geometry" />
        </mxCell>
        <mxCell id="qHXHoo9ju1U-q6KCEDC5-174" value="N : 1" style="text;html=1;strokeColor=none;fillColor=none;align=center;verticalAlign=middle;whiteSpace=wrap;rounded=0;" vertex="1" parent="1">
          <mxGeometry x="990" y="442.5" width="60" height="30" as="geometry" />
        </mxCell>
        <mxCell id="qHXHoo9ju1U-q6KCEDC5-175" value="1 : 1" style="text;html=1;strokeColor=none;fillColor=none;align=center;verticalAlign=middle;whiteSpace=wrap;rounded=0;" vertex="1" parent="1">
          <mxGeometry x="820" y="247.5" width="60" height="30" as="geometry" />
        </mxCell>
        <mxCell id="qHXHoo9ju1U-q6KCEDC5-176" value="1 : N" style="text;html=1;strokeColor=none;fillColor=none;align=center;verticalAlign=middle;whiteSpace=wrap;rounded=0;" vertex="1" parent="1">
          <mxGeometry x="540" y="270" width="60" height="30" as="geometry" />
        </mxCell>
        <mxCell id="qHXHoo9ju1U-q6KCEDC5-177" value="N : 1" style="text;html=1;strokeColor=none;fillColor=none;align=center;verticalAlign=middle;whiteSpace=wrap;rounded=0;" vertex="1" parent="1">
          <mxGeometry x="650" y="50" width="60" height="30" as="geometry" />
        </mxCell>
        <mxCell id="qHXHoo9ju1U-q6KCEDC5-178" value="N : 1" style="text;html=1;strokeColor=none;fillColor=none;align=center;verticalAlign=middle;whiteSpace=wrap;rounded=0;" vertex="1" parent="1">
          <mxGeometry x="740" y="-60" width="60" height="30" as="geometry" />
        </mxCell>
        <mxCell id="qHXHoo9ju1U-q6KCEDC5-179" value="N : N" style="text;html=1;strokeColor=none;fillColor=none;align=center;verticalAlign=middle;whiteSpace=wrap;rounded=0;" vertex="1" parent="1">
          <mxGeometry x="660" y="-282.5" width="60" height="30" as="geometry" />
        </mxCell>
        <mxCell id="qHXHoo9ju1U-q6KCEDC5-180" value="N : N" style="text;html=1;strokeColor=none;fillColor=none;align=center;verticalAlign=middle;whiteSpace=wrap;rounded=0;" vertex="1" parent="1">
          <mxGeometry x="610" y="-340" width="60" height="30" as="geometry" />
        </mxCell>
        <mxCell id="qHXHoo9ju1U-q6KCEDC5-181" value="N : N" style="text;html=1;strokeColor=none;fillColor=none;align=center;verticalAlign=middle;whiteSpace=wrap;rounded=0;" vertex="1" parent="1">
          <mxGeometry x="440" y="-240" width="60" height="30" as="geometry" />
        </mxCell>
        <mxCell id="qHXHoo9ju1U-q6KCEDC5-182" value="N : N" style="text;html=1;strokeColor=none;fillColor=none;align=center;verticalAlign=middle;whiteSpace=wrap;rounded=0;" vertex="1" parent="1">
          <mxGeometry x="640" y="-160" width="60" height="30" as="geometry" />
        </mxCell>
        <mxCell id="qHXHoo9ju1U-q6KCEDC5-183" value="N : 1" style="text;html=1;strokeColor=none;fillColor=none;align=center;verticalAlign=middle;whiteSpace=wrap;rounded=0;" vertex="1" parent="1">
          <mxGeometry x="10" y="220" width="60" height="30" as="geometry" />
        </mxCell>
        <mxCell id="qHXHoo9ju1U-q6KCEDC5-184" value="N : 1" style="text;html=1;strokeColor=none;fillColor=none;align=center;verticalAlign=middle;whiteSpace=wrap;rounded=0;" vertex="1" parent="1">
          <mxGeometry x="-70" y="110" width="60" height="30" as="geometry" />
        </mxCell>
        <mxCell id="qHXHoo9ju1U-q6KCEDC5-185" value="N : 1" style="text;html=1;strokeColor=none;fillColor=none;align=center;verticalAlign=middle;whiteSpace=wrap;rounded=0;" vertex="1" parent="1">
          <mxGeometry x="-60" y="511.25" width="60" height="30" as="geometry" />
        </mxCell>
        <mxCell id="qHXHoo9ju1U-q6KCEDC5-186" value="N : 1" style="text;html=1;strokeColor=none;fillColor=none;align=center;verticalAlign=middle;whiteSpace=wrap;rounded=0;" vertex="1" parent="1">
          <mxGeometry x="-70" y="310" width="60" height="30" as="geometry" />
        </mxCell>
        <mxCell id="qHXHoo9ju1U-q6KCEDC5-187" value="N : 1" style="text;html=1;strokeColor=none;fillColor=none;align=center;verticalAlign=middle;whiteSpace=wrap;rounded=0;" vertex="1" parent="1">
          <mxGeometry x="20" y="442.5" width="60" height="30" as="geometry" />
        </mxCell>
        <mxCell id="qHXHoo9ju1U-q6KCEDC5-188" value="N : N" style="text;html=1;strokeColor=none;fillColor=none;align=center;verticalAlign=middle;whiteSpace=wrap;rounded=0;" vertex="1" parent="1">
          <mxGeometry x="-300" y="300" width="60" height="30" as="geometry" />
        </mxCell>
        <mxCell id="qHXHoo9ju1U-q6KCEDC5-189" value="N : 1" style="text;html=1;strokeColor=none;fillColor=none;align=center;verticalAlign=middle;whiteSpace=wrap;rounded=0;" vertex="1" parent="1">
          <mxGeometry x="-460" y="230" width="60" height="30" as="geometry" />
        </mxCell>
      </root>
    </mxGraphModel>
  </diagram>
</mxfile>
